<svg width="252" height="50" viewBox="0 0 252 50" fill="none" xmlns="http://www.w3.org/2000/svg">
<path d="M70.13 37L62.33 14.65H66.77L72.89 33.16H72.02L78.14 14.65H82.58L74.81 37H70.13ZM85.078 37V14.65H89.158V37H85.078ZM93.4569 37V14.65H96.6369L108.937 31.21L107.287 31.54V14.65H111.367V37H108.157L96.0369 20.32L97.5369 19.99V37H93.4569ZM119.653 37V18.25H113.863V14.65H129.463V18.25H123.763V37H119.653ZM128.629 37L136.339 14.65H141.619L149.329 37H144.889L143.299 32.2H134.659L133.039 37H128.629ZM135.829 28.6H142.129L138.409 17.47H139.549L135.829 28.6ZM156.439 37L148.639 14.65H153.079L159.199 33.16H158.329L164.449 14.65H168.889L161.119 37H156.439ZM171.387 37V14.65H186.237V18.25H175.467V23.98H185.637V27.58H175.467V33.4H186.237V37H171.387ZM189.228 37V14.65H197.538C199.058 14.65 200.398 14.93 201.558 15.49C202.738 16.03 203.658 16.83 204.318 17.89C204.978 18.93 205.308 20.2 205.308 21.7C205.308 23.24 204.938 24.55 204.198 25.63C203.478 26.71 202.498 27.51 201.258 28.03L206.388 37H201.768L196.278 27.19L198.918 28.75H193.308V37H189.228ZM193.308 25.15H197.598C198.338 25.15 198.978 25.01 199.518 24.73C200.058 24.43 200.478 24.02 200.778 23.5C201.078 22.98 201.228 22.38 201.228 21.7C201.228 21 201.078 20.4 200.778 19.9C200.478 19.38 200.058 18.98 199.518 18.7C198.978 18.4 198.338 18.25 197.598 18.25H193.308V25.15ZM217.042 37.36C215.622 37.36 214.302 37.1 213.082 36.58C211.882 36.06 210.842 35.34 209.962 34.42C209.102 33.48 208.472 32.39 208.072 31.15L211.462 29.68C212.002 30.96 212.782 31.97 213.802 32.71C214.822 33.43 215.972 33.79 217.252 33.79C217.972 33.79 218.592 33.68 219.112 33.46C219.652 33.22 220.062 32.9 220.342 32.5C220.642 32.1 220.792 31.62 220.792 31.06C220.792 30.4 220.592 29.86 220.192 29.44C219.812 29 219.232 28.66 218.452 28.42L214.162 27.04C212.422 26.5 211.112 25.69 210.232 24.61C209.352 23.53 208.912 22.26 208.912 20.8C208.912 19.52 209.222 18.39 209.842 17.41C210.482 16.43 211.362 15.67 212.482 15.13C213.622 14.57 214.922 14.29 216.382 14.29C217.722 14.29 218.952 14.53 220.072 15.01C221.192 15.47 222.152 16.12 222.952 16.96C223.772 17.78 224.382 18.75 224.782 19.87L221.422 21.37C220.982 20.25 220.322 19.39 219.442 18.79C218.562 18.17 217.542 17.86 216.382 17.86C215.702 17.86 215.102 17.98 214.582 18.22C214.062 18.44 213.652 18.76 213.352 19.18C213.072 19.58 212.932 20.06 212.932 20.62C212.932 21.24 213.132 21.79 213.532 22.27C213.932 22.73 214.542 23.09 215.362 23.35L219.472 24.64C221.252 25.22 222.582 26.02 223.462 27.04C224.362 28.06 224.812 29.32 224.812 30.82C224.812 32.1 224.482 33.23 223.822 34.21C223.162 35.19 222.252 35.96 221.092 36.52C219.932 37.08 218.582 37.36 217.042 37.36ZM228.486 37V14.65H243.336V18.25H232.566V23.98H242.736V27.58H232.566V33.4H243.336V37H228.486Z" fill="white"/>
<path d="M24.2135 5L8.17407 5.15725L16.1938 19.1524L24.2135 5Z" fill="#EE3E17"/>
<path d="M32.076 19.1523H16.1938L24.2136 4.9999L32.076 19.1523Z" fill="#BA2707"/>
<path d="M16.1937 19.1523H0.154297L8.17402 5.15715L16.1937 19.1523Z" fill="#FD6F50"/>
<path d="M48.1153 19.4668H32.2332L40.2529 5.31435L48.1153 19.4668Z" fill="#FD6F50"/>
<path d="M55.9779 5.31445H40.2529L48.1154 19.4669L55.9779 5.31445Z" fill="#841E08"/>
<path d="M40.2528 33.6196H24.3706L32.2331 19.4672L40.2528 33.6196Z" fill="#EE3E17"/>
<path d="M48.1153 19.4668H32.2332L40.2529 33.6192L48.1153 19.4668Z" fill="#BA2707"/>
<path d="M40.2528 33.6196H24.3706L32.3903 47.7721L40.2528 33.6196Z" fill="#FD5B38"/>
</svg>
